<?xml version="1.0" standalone="no"?>
<!DOCTYPE svg PUBLIC "-//W3C//DTD SVG 20010904//EN"
 "http://www.w3.org/TR/2001/REC-SVG-20010904/DTD/svg10.dtd">
<svg version="1.0" xmlns="http://www.w3.org/2000/svg"
 width="260.000000pt" height="260.000000pt" viewBox="0 0 260.000000 260.000000"
 preserveAspectRatio="xMidYMid meet">
<metadata>
Created by potrace 1.11, written by Peter Selinger 2001-2013
</metadata>
<g transform="translate(0.000000,260.000000) scale(0.100000,-0.100000)"
fill="#000000" stroke="none">
<path d="M1472 1915 c-87 -24 -96 -29 -98 -48 0 -7 -2 -19 -2 -27 -1 -9 -11
-16 -22 -17 -18 -2 -22 3 -19 23 0 4 -13 16 -30 27 -28 17 -35 18 -62 7 -21
-9 -33 -10 -37 -3 -14 21 -52 25 -77 9 -14 -9 -26 -15 -27 -14 -2 1 -13 -4
-24 -10 -19 -10 -24 -8 -38 13 -12 19 -25 25 -51 25 -29 0 -39 -6 -55 -32 -11
-18 -15 -34 -10 -36 16 -6 12 -52 -5 -58 -8 -3 -17 -15 -21 -27 -5 -16 -8 -17
-14 -6 -9 17 -34 122 -31 128 4 6 -26 22 -60 31 -27 8 -34 5 -70 -32 -32 -34
-42 -39 -50 -27 -5 8 -9 17 -9 21 0 4 -12 15 -28 26 -39 27 -88 13 -107 -31
-7 -17 -11 -39 -10 -49 4 -21 -25 -25 -54 -7 -24 16 -87 3 -96 -19 -16 -38
-23 -82 -13 -82 6 0 8 -6 5 -14 -3 -7 -2 -17 2 -22 7 -8 19 -57 35 -144 2 -8
5 -22 8 -30 7 -18 26 -104 34 -144 3 -16 8 -34 12 -40 3 -6 -6 -3 -21 7 -37
24 -67 23 -60 -3 6 -22 -7 -26 -25 -8 -9 9 -12 9 -12 0 0 -26 -38 -10 -80 33
-30 30 -47 41 -55 35 -7 -6 -16 -5 -24 3 -10 9 -11 8 -6 -5 6 -15 1 -18 -35
-18 -23 0 -50 5 -61 11 -11 6 -29 12 -39 14 -18 4 -19 2 -5 -19 8 -12 13 -25
10 -28 -3 -2 13 -19 35 -37 33 -27 40 -38 40 -68 l0 -37 -33 30 c-17 16 -26
22 -19 14 6 -8 12 -21 12 -30 0 -21 51 -70 72 -70 20 0 66 -53 74 -87 12 -45
-33 -100 -49 -60 -3 6 -5 1 -5 -13 1 -14 -11 -47 -27 -75 l-27 -50 5 44 c4 29
2 40 -4 30 -5 -7 -9 -36 -9 -62 0 -31 -4 -46 -11 -42 -5 4 -3 -10 5 -30 21
-49 20 -61 -1 -44 -15 11 -15 10 1 -8 11 -14 16 -31 13 -44 -4 -16 -3 -19 5
-11 6 6 17 8 24 5 8 -3 25 2 39 11 14 9 25 12 25 6 0 -5 9 -1 20 10 11 11 23
20 27 21 5 0 18 2 30 5 12 2 34 -3 50 -11 39 -21 62 -19 108 10 49 30 65 32
34 4 -22 -18 -22 -19 -3 -10 12 6 24 8 27 4 4 -3 20 6 37 21 34 28 82 38 61
12 -9 -10 -8 -15 4 -19 8 -4 14 -1 12 6 -1 7 11 12 31 13 17 1 32 -2 32 -7 0
-5 -4 -9 -9 -9 -5 0 -12 -7 -15 -16 -3 -8 -2 -12 4 -9 6 3 10 1 10 -4 0 -6 -9
-11 -20 -11 -11 0 -20 -4 -20 -8 0 -8 19 -8 78 0 6 1 12 8 13 17 0 10 2 12 6
4 3 -8 14 -11 29 -7 25 6 34 -10 12 -19 -7 -3 -1 -6 15 -6 15 -1 27 3 27 7 0
5 7 9 15 9 19 0 98 35 107 48 5 6 8 6 8 -1 0 -9 10 -9 38 -2 54 14 84 15 89 1
3 -8 -4 -13 -19 -13 -13 0 -33 -7 -44 -15 -12 -9 -13 -13 -4 -11 8 3 38 7 66
10 28 3 64 12 80 21 15 8 31 12 34 8 3 -3 0 -8 -6 -10 -6 -2 -20 -10 -30 -18
-18 -14 -17 -14 12 -9 21 4 43 -1 69 -15 35 -19 41 -19 62 -6 13 9 24 11 28 5
9 -14 45 -12 76 4 15 7 38 11 53 9 14 -3 34 -2 43 2 17 7 16 8 -2 15 -29 12 4
13 41 0 45 -14 95 -20 88 -9 -3 5 -20 16 -37 24 -23 10 -25 13 -7 8 14 -3 32
-7 40 -8 8 -1 29 -8 45 -15 17 -7 36 -14 44 -16 8 -1 17 -6 20 -11 3 -4 20 -9
36 -10 29 -3 29 -2 8 9 -13 6 -23 15 -23 21 0 5 7 4 15 -3 8 -7 15 -10 15 -7
0 3 16 1 35 -3 20 -4 38 -4 41 1 3 5 14 5 25 -1 25 -14 37 12 18 38 -13 15
-12 16 4 3 10 -8 16 -23 14 -32 -3 -10 1 -20 8 -22 11 -5 13 12 5 48 -6 25 2
33 28 29 60 -8 71 -11 84 -21 7 -6 36 -15 63 -21 41 -9 47 -8 33 2 -28 21 -21
28 12 11 16 -8 46 -14 67 -14 23 1 29 3 16 6 -13 2 -23 8 -23 14 0 10 90 0
105 -11 10 -8 57 -19 107 -24 34 -4 46 29 17 45 -19 9 -18 11 8 46 26 34 26
35 5 24 -12 -6 -22 -17 -22 -23 0 -6 -3 -9 -6 -6 -9 10 26 102 49 126 13 14
21 33 19 48 -2 16 8 35 33 61 20 21 44 52 52 68 l14 30 -20 -25 c-11 -14 -21
-22 -21 -19 0 3 13 23 30 44 17 21 30 41 30 46 0 10 -70 -10 -95 -27 -25 -18
-35 -18 -35 0 0 8 -5 16 -11 18 -16 5 18 38 40 38 9 0 32 13 51 29 30 26 32
29 11 24 -21 -5 -23 -3 -16 18 17 52 25 68 47 89 l23 22 -25 -8 c-14 -4 -35
-8 -47 -9 -12 -1 -28 -7 -35 -13 -25 -20 -68 -33 -68 -19 0 8 -3 8 -8 2 -4 -6
-14 -10 -22 -10 -8 1 -22 -4 -30 -10 -26 -20 -100 -55 -116 -55 -12 0 -12 4
-4 20 9 16 8 18 -5 14 -8 -4 -15 -10 -15 -14 0 -10 -81 -56 -113 -65 -18 -5
-17 -3 6 10 28 16 36 35 15 35 -6 0 -2 9 10 20 12 12 22 25 22 30 0 6 -9 1
-20 -10 -21 -21 -40 -26 -40 -11 0 6 5 13 10 16 6 4 8 11 5 16 -8 12 16 130
25 124 15 -9 29 22 36 78 5 41 3 57 -5 57 -7 0 -10 11 -7 28 2 15 5 30 5 34 1
4 7 5 15 2 14 -5 26 15 31 51 2 11 6 32 8 48 4 19 2 27 -9 27 -11 0 -14 10
-12 36 2 26 -1 38 -12 40 -8 2 -24 5 -35 8 -11 2 -31 5 -44 5 -18 1 -22 5 -18
20 4 18 -13 26 -68 32 -2 1 -23 5 -46 10 -34 8 -43 7 -54 -7 -9 -13 -19 -15
-41 -9 -55 16 -68 12 -74 -20 -4 -21 -11 -29 -22 -27 -14 2 -19 -8 -24 -48 -4
-27 -10 -50 -15 -50 -11 0 -22 38 -14 50 3 5 1 10 -4 10 -6 0 -11 8 -11 18 -1
42 -13 45 -94 23 -42 -12 -79 -21 -82 -21 -3 0 -4 20 -1 45 3 25 5 45 4 44 -1
0 -40 -11 -85 -24z m312 -210 c-7 -18 -8 -18 -14 1 -9 23 -1 39 11 27 6 -6 6
-18 3 -28z m-864 -51 c0 -14 -3 -14 -15 -4 -8 7 -15 14 -15 16 0 2 7 4 15 4 8
0 15 -7 15 -16z m424 -171 c-4 -16 -10 -32 -15 -37 -5 -5 -4 6 1 25 6 18 10
35 10 36 0 2 2 3 5 3 3 0 2 -12 -1 -27z m-15 -77 c7 -8 8 -17 3 -20 -6 -3 -12
3 -15 14 -6 24 -4 25 12 6z m60 -63 c14 -50 14 -60 -4 -67 -8 -3 -15 0 -15 6
0 6 -9 -1 -21 -16 -23 -29 -54 -33 -87 -10 -31 21 -27 33 9 32 22 -1 37 6 50
23 10 13 16 26 13 28 -5 6 27 41 37 41 4 0 13 -17 18 -37z m-498 3 c15 -7 32
-10 39 -6 14 9 24 7 78 -9 17 -5 32 -7 32 -5 0 3 6 2 13 -3 6 -4 23 -7 36 -8
13 0 26 -6 29 -14 3 -10 0 -12 -12 -8 -9 4 -16 3 -16 -1 0 -4 -12 -13 -27 -19
-22 -11 -29 -10 -44 3 -9 8 -35 17 -57 19 -22 2 -50 9 -62 15 -34 18 -34 5 0
-24 17 -14 28 -26 25 -26 -11 0 -88 43 -103 58 -19 18 -35 15 -28 -5 6 -17 5
-17 -7 -1 -11 14 -16 15 -27 5 -10 -10 -11 -9 -5 2 6 11 4 13 -11 7 -10 -4
-15 -3 -10 1 7 8 87 30 116 32 8 0 27 -5 41 -13z m797 -18 c2 -12 -3 -18 -17
-18 -11 0 -22 -4 -25 -9 -10 -16 -90 -33 -116 -23 -23 9 -22 9 14 16 24 5 36
12 33 20 -5 12 0 14 43 18 11 1 20 5 20 9 0 15 45 3 48 -13z m82 5 c0 -5 -72
-45 -75 -41 -2 2 -2 14 1 25 5 17 13 21 40 20 19 -1 34 -3 34 -4z m50 -12 c0
-14 -29 -21 -36 -9 -4 6 -3 8 4 4 6 -3 13 -2 17 4 8 12 15 13 15 1z m-1110 -5
c0 -2 -7 -7 -16 -10 -8 -3 -12 -2 -9 4 6 10 25 14 25 6z m30 -10 c0 -2 -7 -7
-16 -10 -8 -3 -12 -2 -9 4 6 10 25 14 25 6z m464 -9 c25 -3 33 -27 9 -27 -10
0 -31 10 -48 21 -28 20 -28 21 -5 14 14 -3 34 -7 44 -8z m663 6 c-4 -3 0 -15
10 -25 20 -22 11 -24 -11 -2 -15 14 -14 34 1 34 4 0 3 -3 0 -7z m-1280 -37
c-7 -17 -34 -21 -56 -7 -19 12 -3 33 20 26 12 -4 19 -2 19 6 0 10 3 10 11 2 7
-7 9 -19 6 -27z m1393 23 c0 -4 -13 -12 -30 -18 -25 -8 -30 -7 -30 5 0 8 5 12
10 9 6 -3 10 -2 10 2 0 5 9 9 20 9 11 0 20 -3 20 -7z m-1230 -9 c0 -5 -2 -10
-4 -10 -3 0 -8 5 -11 10 -3 6 -1 10 4 10 6 0 11 -4 11 -10z m1100 -54 c0 -3
-4 -8 -10 -11 -5 -3 -10 -1 -10 4 0 6 5 11 10 11 6 0 10 -2 10 -4z m-1149
-470 c5 3 9 0 9 -5 0 -6 -5 -11 -11 -11 -5 0 -8 -4 -4 -9 3 -6 -3 -14 -13 -20
-15 -8 -18 -6 -17 7 3 28 18 57 23 44 2 -7 8 -10 13 -6z m-344 -22 c-3 -3 -12
-4 -19 -1 -8 3 -5 6 6 6 11 1 17 -2 13 -5z"/>
<path d="M675 741 c-3 -5 -2 -12 3 -15 5 -3 9 1 9 9 0 17 -3 19 -12 6z"/>
<path d="M1920 759 c-12 -8 -10 -9 9 -4 16 5 21 4 17 -4 -5 -7 -1 -8 9 -4 13
5 14 7 3 14 -17 11 -20 11 -38 -2z"/>
<path d="M1924 724 c4 -25 46 -46 46 -23 0 5 -4 7 -10 4 -5 -3 -10 0 -10 8 0
8 -6 17 -14 20 -9 4 -13 0 -12 -9z"/>
</g>
</svg>
